<?xml version="1.0" encoding="iso-8859-1"?>
<!-- Generator: Adobe Illustrator 19.0.0, SVG Export Plug-In . SVG Version: 6.00 Build 0)  -->
<svg version="1.1" id="Layer_1" xmlns="http://www.w3.org/2000/svg" xmlns:xlink="http://www.w3.org/1999/xlink" x="0px" y="0px"
	 viewBox="0 0 300.159 300.159" style="enable-background:new 0 0 300.159 300.159;" xml:space="preserve">
<g>
	<g>
		<path style="fill:#F9BA48;" d="M242.064,135.531c-32.035,0-58.095-26.061-58.095-58.095s26.061-58.095,58.095-58.095
			s58.095,26.061,58.095,58.095S274.099,135.531,242.064,135.531z"/>
		<path style="fill:#F9BA48;" d="M58.095,135.531C26.061,135.531,0,109.471,0,77.436s26.061-58.095,58.095-58.095
			s58.095,26.061,58.095,58.095S90.13,135.531,58.095,135.531z"/>
		<path style="fill:#F9BA48;" d="M150.08,290.453c-32.035,0-58.095-26.061-58.095-58.095s26.061-58.095,58.095-58.095
			s58.095,26.061,58.095,58.095S182.115,290.453,150.08,290.453z"/>
		<path style="fill:#333333;" d="M246.906,72.595h-9.683c-5.34,0-9.683-4.343-9.683-9.683s4.343-9.683,9.683-9.683h9.683
			c5.34,0,9.683,4.343,9.683,9.683h9.683c0-10.68-8.685-19.365-19.365-19.365v-9.683h-9.683v9.683
			c-10.68,0-19.365,8.685-19.365,19.365s8.685,19.365,19.365,19.365h9.683c5.34,0,9.683,4.343,9.683,9.683s-4.343,9.683-9.683,9.683
			h-9.683c-5.34,0-9.683-4.343-9.683-9.683h-9.683c0,10.68,8.685,19.365,19.365,19.365v9.683h9.683v-9.683
			c10.68,0,19.365-8.685,19.365-19.365S257.585,72.595,246.906,72.595z"/>
		<path style="fill:#333333;" d="M58.095,111.325c9.581,0,18.775-4.115,25.209-11.29L76.1,93.567
			c-4.604,5.132-11.169,8.075-18.005,8.075c-7.877,0-14.819-3.839-19.239-9.683h24.081v-9.683H34.378
			c-0.32-1.564-0.489-3.186-0.489-4.841c0-1.656,0.169-3.278,0.489-4.841h28.559v-9.683H38.856
			c4.425-5.843,11.367-9.683,19.239-9.683c6.836,0,13.401,2.944,18.005,8.075l7.204-6.468c-6.434-7.175-15.628-11.29-25.209-11.29
			c-13.483,0-25.117,7.935-30.573,19.365h-8.158v9.683h5.229c-0.228,1.588-0.387,3.195-0.387,4.841s0.16,3.253,0.387,4.841h-5.229
			v9.683h8.158C32.979,103.39,44.612,111.325,58.095,111.325z"/>
		<polygon style="fill:#333333;" points="170.563,200.212 150.08,224.796 129.596,200.212 122.15,206.408 143.776,232.357 
			130.715,232.357 130.715,242.04 145.239,242.04 145.239,246.882 130.715,246.882 130.715,256.564 145.239,256.564 
			145.239,266.246 154.921,266.246 154.921,256.564 169.445,256.564 169.445,246.882 154.921,246.882 154.921,242.04 
			169.445,242.04 169.445,232.357 156.383,232.357 178.009,206.408 		"/>
		<path style="fill:#333333;" d="M216.851,208.799l6.081,7.543c21.147-17.046,35.729-41.006,41.049-67.468l-9.494-1.912
			C249.612,171.212,236.245,193.173,216.851,208.799z"/>
		<path style="fill:#333333;" d="M45.673,146.962l-9.494,1.912c5.325,26.458,19.903,50.422,41.049,67.468l6.081-7.538
			C63.915,193.173,50.548,171.212,45.673,146.962z"/>
		<path style="fill:#333333;" d="M104.528,18.939l3.8,8.908c26.448-11.285,57.055-11.285,83.502,0l3.8-8.908
			C166.763,6.627,133.397,6.627,104.528,18.939z"/>
	</g>
</g>
<g>
</g>
<g>
</g>
<g>
</g>
<g>
</g>
<g>
</g>
<g>
</g>
<g>
</g>
<g>
</g>
<g>
</g>
<g>
</g>
<g>
</g>
<g>
</g>
<g>
</g>
<g>
</g>
<g>
</g>
</svg>
